<svg width="20" height="20" viewBox="0 0 20 20" fill="none" xmlns="http://www.w3.org/2000/svg">
<g clip-path="url(#clip0_925_46252)">
<path d="M5.14199 15C5.31416 14.5121 5.63344 14.0896 6.05583 13.7907C6.47821 13.4918 6.9829 13.3313 7.50033 13.3313C8.01775 13.3313 8.52244 13.4918 8.94483 13.7907C9.36721 14.0896 9.68649 14.5121 9.85866 15H17.5003C17.9606 15 18.3337 15.3731 18.3337 15.8334C18.3337 16.2936 17.9606 16.6667 17.5003 16.6667H9.85866C9.68649 17.1547 9.36721 17.5772 8.94483 17.8761C8.52244 18.1749 8.01775 18.3354 7.50033 18.3354C6.9829 18.3354 6.47821 18.1749 6.05583 17.8761C5.63344 17.5772 5.31416 17.1547 5.14199 16.6667H2.50033C2.04009 16.6667 1.66699 16.2936 1.66699 15.8334C1.66699 15.3731 2.04009 15 2.50033 15H5.14199ZM10.142 9.16672C10.3142 8.67877 10.6334 8.25624 11.0558 7.95737C11.4782 7.6585 11.9829 7.49801 12.5003 7.49801C13.0178 7.49801 13.5224 7.6585 13.9448 7.95737C14.3672 8.25624 14.6865 8.67877 14.8587 9.16672H17.5003C17.9606 9.16672 18.3337 9.53981 18.3337 10C18.3337 10.4603 17.9606 10.8334 17.5003 10.8334H14.8587C14.6865 11.3213 14.3672 11.7439 13.9448 12.0427C13.5224 12.3416 13.0178 12.5021 12.5003 12.5021C11.9829 12.5021 11.4782 12.3416 11.0558 12.0427C10.6334 11.7439 10.3142 11.3213 10.142 10.8334H2.50033C2.04009 10.8334 1.66699 10.4603 1.66699 10C1.66699 9.53981 2.04009 9.16672 2.50033 9.16672H10.142ZM5.14199 3.33338C5.31416 2.84544 5.63344 2.42291 6.05583 2.12404C6.47821 1.82517 6.9829 1.66467 7.50033 1.66467C8.01775 1.66467 8.52244 1.82517 8.94483 2.12404C9.36721 2.42291 9.68649 2.84544 9.85866 3.33338H17.5003C17.9606 3.33338 18.3337 3.70648 18.3337 4.16671C18.3337 4.62695 17.9606 5.00005 17.5003 5.00005H9.85866C9.68649 5.48799 9.36721 5.91052 8.94483 6.20939C8.52244 6.50826 8.01775 6.66876 7.50033 6.66876C6.9829 6.66876 6.47821 6.50826 6.05583 6.20939C5.63344 5.91052 5.31416 5.48799 5.14199 5.00005H2.50033C2.04009 5.00005 1.66699 4.62695 1.66699 4.16671C1.66699 3.70648 2.04009 3.33338 2.50033 3.33338H5.14199ZM7.50033 5.00005C7.72134 5.00005 7.9333 4.91225 8.08958 4.75597C8.24586 4.59969 8.33366 4.38773 8.33366 4.16671C8.33366 3.9457 8.24586 3.73374 8.08958 3.57746C7.9333 3.42118 7.72134 3.33338 7.50033 3.33338C7.27931 3.33338 7.06735 3.42118 6.91107 3.57746C6.75479 3.73374 6.66699 3.9457 6.66699 4.16671C6.66699 4.38773 6.75479 4.59969 6.91107 4.75597C7.06735 4.91225 7.27931 5.00005 7.50033 5.00005ZM12.5003 10.8334C12.7213 10.8334 12.9333 10.7456 13.0896 10.5893C13.2459 10.433 13.3337 10.2211 13.3337 10C13.3337 9.77903 13.2459 9.56707 13.0896 9.41079C12.9333 9.25451 12.7213 9.16672 12.5003 9.16672C12.2793 9.16672 12.0674 9.25451 11.9111 9.41079C11.7548 9.56707 11.667 9.77903 11.667 10C11.667 10.2211 11.7548 10.433 11.9111 10.5893C12.0674 10.7456 12.2793 10.8334 12.5003 10.8334ZM7.50033 16.6667C7.72134 16.6667 7.9333 16.5789 8.08958 16.4226C8.24586 16.2664 8.33366 16.0544 8.33366 15.8334C8.33366 15.6124 8.24586 15.4004 8.08958 15.2441C7.9333 15.0878 7.72134 15 7.50033 15C7.27931 15 7.06735 15.0878 6.91107 15.2441C6.75479 15.4004 6.66699 15.6124 6.66699 15.8334C6.66699 16.0544 6.75479 16.2664 6.91107 16.4226C7.06735 16.5789 7.27931 16.6667 7.50033 16.6667Z" fill="#FF7B2C"/>
</g>
<defs>
<clipPath id="clip0_925_46252">
<rect width="20" height="20" fill="white"/>
</clipPath>
</defs>
</svg>
